<svg width="95" height="14" viewBox="0 0 95 14" fill="none" xmlns="http://www.w3.org/2000/svg">
<path d="M0.835133 13C0.703133 13 0.595133 12.958 0.511133 12.874C0.427133 12.79 0.385133 12.682 0.385133 12.55V0.868C0.385133 0.735999 0.427133 0.627999 0.511133 0.543999C0.595133 0.447999 0.703133 0.399999 0.835133 0.399999H3.30113C3.43313 0.399999 3.54113 0.447999 3.62513 0.543999C3.72113 0.627999 3.76913 0.735999 3.76913 0.868V5.134H8.01713V0.868C8.01713 0.735999 8.05913 0.627999 8.14313 0.543999C8.23913 0.447999 8.35313 0.399999 8.48513 0.399999H10.9331C11.0651 0.399999 11.1731 0.447999 11.2571 0.543999C11.3531 0.627999 11.4011 0.735999 11.4011 0.868V12.55C11.4011 12.682 11.3531 12.79 11.2571 12.874C11.1731 12.958 11.0651 13 10.9331 13H8.48513C8.35313 13 8.23913 12.958 8.14313 12.874C8.05913 12.79 8.01713 12.682 8.01713 12.55V8.14H3.76913V12.55C3.76913 12.682 3.72113 12.79 3.62513 12.874C3.54113 12.958 3.43313 13 3.30113 13H0.835133ZM19.196 13.18C17.492 13.18 16.154 12.766 15.182 11.938C14.222 11.11 13.742 9.868 13.742 8.212V0.868C13.742 0.735999 13.784 0.627999 13.868 0.543999C13.952 0.447999 14.06 0.399999 14.192 0.399999H16.658C16.79 0.399999 16.898 0.447999 16.982 0.543999C17.078 0.627999 17.126 0.735999 17.126 0.868V8.176C17.126 8.92 17.3 9.478 17.648 9.85C18.008 10.222 18.518 10.408 19.178 10.408C19.838 10.408 20.342 10.222 20.69 9.85C21.05 9.466 21.23 8.908 21.23 8.176V0.868C21.23 0.735999 21.272 0.627999 21.356 0.543999C21.452 0.447999 21.566 0.399999 21.698 0.399999H24.146C24.278 0.399999 24.386 0.447999 24.47 0.543999C24.566 0.627999 24.614 0.735999 24.614 0.868V8.212C24.614 9.868 24.134 11.11 23.174 11.938C22.214 12.766 20.888 13.18 19.196 13.18ZM32.2197 13.18C30.4797 13.18 29.1177 12.76 28.1337 11.92C27.1497 11.068 26.6277 9.856 26.5677 8.284C26.5557 7.948 26.5497 7.402 26.5497 6.646C26.5497 5.89 26.5557 5.338 26.5677 4.99C26.6157 3.478 27.1377 2.308 28.1337 1.48C29.1417 0.639999 30.5037 0.219999 32.2197 0.219999C33.3717 0.219999 34.3737 0.405999 35.2257 0.778C36.0897 1.15 36.7437 1.63 37.1877 2.218C37.6437 2.794 37.8837 3.388 37.9077 4C37.9077 4.108 37.8657 4.204 37.7817 4.288C37.7097 4.36 37.6197 4.396 37.5117 4.396H34.7217C34.6017 4.396 34.5057 4.378 34.4337 4.342C34.3737 4.294 34.3137 4.228 34.2537 4.144C34.1097 3.808 33.8757 3.52 33.5517 3.28C33.2397 3.04 32.7957 2.92 32.2197 2.92C30.8277 2.92 30.1077 3.64 30.0597 5.08C30.0477 5.416 30.0417 5.932 30.0417 6.628C30.0417 7.324 30.0477 7.846 30.0597 8.194C30.1077 9.718 30.8397 10.48 32.2557 10.48C32.9517 10.48 33.5037 10.306 33.9117 9.958C34.3197 9.61 34.5237 9.082 34.5237 8.374V8.05H32.9217C32.7897 8.05 32.6757 8.008 32.5797 7.924C32.4957 7.828 32.4537 7.714 32.4537 7.582V6.178C32.4537 6.046 32.4957 5.938 32.5797 5.854C32.6757 5.758 32.7897 5.71 32.9217 5.71H37.4937C37.6257 5.71 37.7337 5.758 37.8177 5.854C37.9137 5.938 37.9617 6.046 37.9617 6.178V8.266C37.9617 9.286 37.7217 10.168 37.2417 10.912C36.7737 11.644 36.1077 12.208 35.2437 12.604C34.3797 12.988 33.3717 13.18 32.2197 13.18ZM45.1735 13.18C43.4695 13.18 42.1255 12.766 41.1415 11.938C40.1575 11.11 39.6355 9.892 39.5755 8.284C39.5635 7.948 39.5575 7.432 39.5575 6.736C39.5575 6.04 39.5635 5.518 39.5755 5.17C39.6235 3.586 40.1455 2.368 41.1415 1.516C42.1495 0.651999 43.4935 0.219999 45.1735 0.219999C46.8415 0.219999 48.1735 0.651999 49.1695 1.516C50.1775 2.368 50.7055 3.586 50.7535 5.17C50.7775 5.866 50.7895 6.388 50.7895 6.736C50.7895 7.096 50.7775 7.612 50.7535 8.284C50.6935 9.892 50.1715 11.11 49.1875 11.938C48.2155 12.766 46.8775 13.18 45.1735 13.18ZM45.1735 10.48C45.7975 10.48 46.2955 10.294 46.6675 9.922C47.0395 9.538 47.2375 8.956 47.2615 8.176C47.2855 7.48 47.2975 6.982 47.2975 6.682C47.2975 6.382 47.2855 5.896 47.2615 5.224C47.2375 4.444 47.0395 3.868 46.6675 3.496C46.2955 3.112 45.7975 2.92 45.1735 2.92C44.5375 2.92 44.0335 3.112 43.6615 3.496C43.2895 3.868 43.0915 4.444 43.0675 5.224C43.0555 5.56 43.0495 6.046 43.0495 6.682C43.0495 7.33 43.0555 7.828 43.0675 8.176C43.0915 8.956 43.2895 9.538 43.6615 9.922C44.0335 10.294 44.5375 10.48 45.1735 10.48ZM61.37 13.18C60.206 13.18 59.216 13.012 58.4 12.676C57.584 12.34 56.966 11.896 56.546 11.344C56.126 10.792 55.904 10.192 55.88 9.544C55.88 9.436 55.916 9.346 55.988 9.274C56.072 9.202 56.168 9.166 56.276 9.166H58.67C58.814 9.166 58.928 9.19 59.012 9.238C59.108 9.286 59.21 9.37 59.318 9.49C59.474 9.778 59.714 10.018 60.038 10.21C60.374 10.39 60.818 10.48 61.37 10.48C62.018 10.48 62.516 10.384 62.864 10.192C63.212 9.988 63.386 9.712 63.386 9.364C63.386 9.112 63.296 8.908 63.116 8.752C62.936 8.584 62.648 8.44 62.252 8.32C61.856 8.188 61.286 8.044 60.542 7.888C59.09 7.6 58.004 7.162 57.284 6.574C56.564 5.986 56.204 5.146 56.204 4.054C56.204 3.31 56.408 2.65 56.816 2.074C57.236 1.486 57.824 1.03 58.58 0.705999C59.348 0.381999 60.236 0.219999 61.244 0.219999C62.3 0.219999 63.212 0.405999 63.98 0.778C64.76 1.138 65.354 1.594 65.762 2.146C66.182 2.686 66.404 3.22 66.428 3.748C66.428 3.856 66.392 3.952 66.32 4.036C66.248 4.108 66.158 4.144 66.05 4.144H63.53C63.266 4.144 63.062 4.036 62.918 3.82C62.846 3.568 62.66 3.358 62.36 3.19C62.06 3.01 61.688 2.92 61.244 2.92C60.74 2.92 60.35 3.01 60.074 3.19C59.798 3.37 59.66 3.634 59.66 3.982C59.66 4.33 59.84 4.606 60.2 4.81C60.56 5.002 61.232 5.2 62.216 5.404C63.344 5.608 64.238 5.866 64.898 6.178C65.57 6.478 66.062 6.874 66.374 7.366C66.698 7.846 66.86 8.458 66.86 9.202C66.86 10.018 66.626 10.726 66.158 11.326C65.69 11.926 65.042 12.388 64.214 12.712C63.386 13.024 62.438 13.18 61.37 13.18ZM69.0563 13C68.9243 13 68.8103 12.958 68.7143 12.874C68.6303 12.79 68.5883 12.682 68.5883 12.55V0.868C68.5883 0.735999 68.6303 0.627999 68.7143 0.543999C68.8103 0.447999 68.9243 0.399999 69.0563 0.399999H71.0903C71.3903 0.399999 71.6063 0.531999 71.7383 0.795999L74.8343 6.34L77.9483 0.795999C78.0803 0.531999 78.2963 0.399999 78.5963 0.399999H80.6303C80.7623 0.399999 80.8703 0.447999 80.9543 0.543999C81.0503 0.627999 81.0983 0.735999 81.0983 0.868V12.55C81.0983 12.682 81.0503 12.79 80.9543 12.874C80.8703 12.958 80.7623 13 80.6303 13H78.3443C78.2243 13 78.1163 12.958 78.0203 12.874C77.9363 12.778 77.8943 12.67 77.8943 12.55V5.998L75.9503 9.562C75.7943 9.838 75.5843 9.976 75.3203 9.976H74.3483C74.1083 9.976 73.8983 9.838 73.7183 9.562L71.7923 5.998V12.55C71.7923 12.682 71.7443 12.79 71.6483 12.874C71.5643 12.958 71.4563 13 71.3243 13H69.0563ZM83.9972 13C83.8772 13 83.7692 12.958 83.6732 12.874C83.5892 12.778 83.5472 12.67 83.5472 12.55V0.868C83.5472 0.735999 83.5892 0.627999 83.6732 0.543999C83.7572 0.447999 83.8652 0.399999 83.9972 0.399999H88.9472C90.5312 0.399999 91.7672 0.759999 92.6552 1.48C93.5552 2.2 94.0052 3.214 94.0052 4.522C94.0052 5.362 93.8072 6.076 93.4112 6.664C93.0272 7.252 92.4932 7.708 91.8092 8.032L94.2392 12.424C94.2752 12.496 94.2932 12.562 94.2932 12.622C94.2932 12.718 94.2572 12.808 94.1852 12.892C94.1132 12.964 94.0232 13 93.9152 13H91.3772C91.0292 13 90.7832 12.838 90.6392 12.514L88.6592 8.608H86.9312V12.55C86.9312 12.682 86.8832 12.79 86.7872 12.874C86.7032 12.958 86.5952 13 86.4632 13H83.9972ZM88.9292 5.962C89.4452 5.962 89.8352 5.836 90.0992 5.584C90.3752 5.32 90.5132 4.96 90.5132 4.504C90.5132 4.048 90.3752 3.682 90.0992 3.406C89.8352 3.13 89.4452 2.992 88.9292 2.992H86.9312V5.962H88.9292Z" fill="black" fill-opacity="0.14"/>
</svg>
