<svg width="179" height="26" viewBox="0 0 179 26" fill="none" xmlns="http://www.w3.org/2000/svg">
<path d="M1.7997 25C1.55036 25 1.34636 24.9207 1.1877 24.762C1.02903 24.6033 0.949695 24.3993 0.949695 24.15V2.084C0.949695 1.83466 1.02903 1.63066 1.1877 1.472C1.34636 1.29067 1.55036 1.2 1.7997 1.2H6.4577C6.70703 1.2 6.91103 1.29067 7.0697 1.472C7.25103 1.63066 7.3417 1.83466 7.3417 2.084V10.142H15.3657V2.084C15.3657 1.83466 15.445 1.63066 15.6037 1.472C15.785 1.29067 16.0004 1.2 16.2497 1.2H20.8737C21.123 1.2 21.327 1.29067 21.4857 1.472C21.667 1.63066 21.7577 1.83466 21.7577 2.084V24.15C21.7577 24.3993 21.667 24.6033 21.4857 24.762C21.327 24.9207 21.123 25 20.8737 25H16.2497C16.0004 25 15.785 24.9207 15.6037 24.762C15.445 24.6033 15.3657 24.3993 15.3657 24.15V15.82H7.3417V24.15C7.3417 24.3993 7.25103 24.6033 7.0697 24.762C6.91103 24.9207 6.70703 25 6.4577 25H1.7997ZM36.4813 25.34C33.2626 25.34 30.7353 24.558 28.8993 22.994C27.086 21.43 26.1793 19.084 26.1793 15.956V2.084C26.1793 1.83466 26.2586 1.63066 26.4173 1.472C26.576 1.29067 26.78 1.2 27.0293 1.2H31.6873C31.9366 1.2 32.1406 1.29067 32.2993 1.472C32.4806 1.63066 32.5713 1.83466 32.5713 2.084V15.888C32.5713 17.2933 32.9 18.3473 33.5573 19.05C34.2373 19.7527 35.2006 20.104 36.4473 20.104C37.694 20.104 38.646 19.7527 39.3033 19.05C39.9833 18.3247 40.3233 17.2707 40.3233 15.888V2.084C40.3233 1.83466 40.4026 1.63066 40.5613 1.472C40.7426 1.29067 40.958 1.2 41.2073 1.2H45.8313C46.0806 1.2 46.2846 1.29067 46.4433 1.472C46.6246 1.63066 46.7153 1.83466 46.7153 2.084V15.956C46.7153 19.084 45.8086 21.43 43.9953 22.994C42.182 24.558 39.6773 25.34 36.4813 25.34ZM61.0816 25.34C57.795 25.34 55.2223 24.5467 53.3636 22.96C51.505 21.3507 50.519 19.0613 50.4056 16.092C50.383 15.4573 50.3716 14.426 50.3716 12.998C50.3716 11.57 50.383 10.5273 50.4056 9.87C50.4963 7.014 51.4823 4.804 53.3636 3.24C55.2676 1.65333 57.8403 0.859999 61.0816 0.859999C63.2576 0.859999 65.1503 1.21133 66.7596 1.914C68.3916 2.61667 69.627 3.52333 70.4656 4.634C71.327 5.722 71.7803 6.844 71.8256 8C71.8256 8.204 71.7463 8.38533 71.5876 8.544C71.4516 8.68 71.2816 8.748 71.0776 8.748H65.8076C65.581 8.748 65.3996 8.714 65.2636 8.646C65.1503 8.55533 65.037 8.43067 64.9236 8.272C64.6516 7.63733 64.2096 7.09333 63.5976 6.64C63.0083 6.18667 62.1696 5.96 61.0816 5.96C58.4523 5.96 57.0923 7.32 57.0016 10.04C56.979 10.6747 56.9676 11.6493 56.9676 12.964C56.9676 14.2787 56.979 15.2647 57.0016 15.922C57.0923 18.8007 58.475 20.24 61.1496 20.24C62.4643 20.24 63.507 19.9113 64.2776 19.254C65.0483 18.5967 65.4336 17.5993 65.4336 16.262V15.65H62.4076C62.1583 15.65 61.943 15.5707 61.7616 15.412C61.603 15.2307 61.5236 15.0153 61.5236 14.766V12.114C61.5236 11.8647 61.603 11.6607 61.7616 11.502C61.943 11.3207 62.1583 11.23 62.4076 11.23H71.0436C71.293 11.23 71.497 11.3207 71.6556 11.502C71.837 11.6607 71.9276 11.8647 71.9276 12.114V16.058C71.9276 17.9847 71.4743 19.6507 70.5676 21.056C69.6836 22.4387 68.4256 23.504 66.7936 24.252C65.1616 24.9773 63.2576 25.34 61.0816 25.34ZM85.5499 25.34C82.3313 25.34 79.7926 24.558 77.9339 22.994C76.0753 21.43 75.0893 19.1293 74.9759 16.092C74.9533 15.4573 74.9419 14.4827 74.9419 13.168C74.9419 11.8533 74.9533 10.8673 74.9759 10.21C75.0666 7.218 76.0526 4.91733 77.9339 3.308C79.8379 1.676 82.3766 0.859999 85.5499 0.859999C88.7006 0.859999 91.2166 1.676 93.0979 3.308C95.0019 4.91733 95.9993 7.218 96.0899 10.21C96.1353 11.5247 96.1579 12.5107 96.1579 13.168C96.1579 13.848 96.1353 14.8227 96.0899 16.092C95.9766 19.1293 94.9906 21.43 93.1319 22.994C91.2959 24.558 88.7686 25.34 85.5499 25.34ZM85.5499 20.24C86.7286 20.24 87.6693 19.8887 88.3719 19.186C89.0746 18.4607 89.4486 17.3613 89.4939 15.888C89.5393 14.5733 89.5619 13.6327 89.5619 13.066C89.5619 12.4993 89.5393 11.5813 89.4939 10.312C89.4486 8.83867 89.0746 7.75067 88.3719 7.048C87.6693 6.32267 86.7286 5.96 85.5499 5.96C84.3486 5.96 83.3966 6.32267 82.6939 7.048C81.9913 7.75067 81.6173 8.83867 81.5719 10.312C81.5493 10.9467 81.5379 11.8647 81.5379 13.066C81.5379 14.29 81.5493 15.2307 81.5719 15.888C81.6173 17.3613 81.9913 18.4607 82.6939 19.186C83.3966 19.8887 84.3486 20.24 85.5499 20.24ZM116.143 25.34C113.945 25.34 112.075 25.0227 110.533 24.388C108.992 23.7533 107.825 22.9147 107.031 21.872C106.238 20.8293 105.819 19.696 105.773 18.472C105.773 18.268 105.841 18.098 105.977 17.962C106.136 17.826 106.317 17.758 106.521 17.758H111.043C111.315 17.758 111.531 17.8033 111.689 17.894C111.871 17.9847 112.063 18.1433 112.267 18.37C112.562 18.914 113.015 19.3673 113.627 19.73C114.262 20.07 115.101 20.24 116.143 20.24C117.367 20.24 118.308 20.0587 118.965 19.696C119.623 19.3107 119.951 18.7893 119.951 18.132C119.951 17.656 119.781 17.2707 119.441 16.976C119.101 16.6587 118.557 16.3867 117.809 16.16C117.061 15.9107 115.985 15.6387 114.579 15.344C111.837 14.8 109.785 13.9727 108.425 12.862C107.065 11.7513 106.385 10.1647 106.385 8.102C106.385 6.69667 106.771 5.45 107.541 4.362C108.335 3.25133 109.445 2.39 110.873 1.778C112.324 1.166 114.001 0.859999 115.905 0.859999C117.9 0.859999 119.623 1.21133 121.073 1.914C122.547 2.594 123.669 3.45533 124.439 4.498C125.233 5.518 125.652 6.52667 125.697 7.524C125.697 7.728 125.629 7.90933 125.493 8.068C125.357 8.204 125.187 8.272 124.983 8.272H120.223C119.725 8.272 119.339 8.068 119.067 7.66C118.931 7.184 118.58 6.78733 118.013 6.47C117.447 6.13 116.744 5.96 115.905 5.96C114.953 5.96 114.217 6.13 113.695 6.47C113.174 6.81 112.913 7.30867 112.913 7.966C112.913 8.62333 113.253 9.14467 113.933 9.53C114.613 9.89267 115.883 10.2667 117.741 10.652C119.872 11.0373 121.561 11.5247 122.807 12.114C124.077 12.6807 125.006 13.4287 125.595 14.358C126.207 15.2647 126.513 16.4207 126.513 17.826C126.513 19.3673 126.071 20.7047 125.187 21.838C124.303 22.9713 123.079 23.844 121.515 24.456C119.951 25.0453 118.161 25.34 116.143 25.34ZM130.662 25C130.412 25 130.197 24.9207 130.016 24.762C129.857 24.6033 129.778 24.3993 129.778 24.15V2.084C129.778 1.83466 129.857 1.63066 130.016 1.472C130.197 1.29067 130.412 1.2 130.662 1.2H134.504C135.07 1.2 135.478 1.44933 135.728 1.948L141.576 12.42L147.458 1.948C147.707 1.44933 148.115 1.2 148.682 1.2H152.524C152.773 1.2 152.977 1.29067 153.136 1.472C153.317 1.63066 153.408 1.83466 153.408 2.084V24.15C153.408 24.3993 153.317 24.6033 153.136 24.762C152.977 24.9207 152.773 25 152.524 25H148.206C147.979 25 147.775 24.9207 147.594 24.762C147.435 24.5807 147.356 24.3767 147.356 24.15V11.774L143.684 18.506C143.389 19.0273 142.992 19.288 142.494 19.288H140.658C140.204 19.288 139.808 19.0273 139.468 18.506L135.83 11.774V24.15C135.83 24.3993 135.739 24.6033 135.558 24.762C135.399 24.9207 135.195 25 134.946 25H130.662ZM158.884 25C158.657 25 158.453 24.9207 158.272 24.762C158.113 24.5807 158.034 24.3767 158.034 24.15V2.084C158.034 1.83466 158.113 1.63066 158.272 1.472C158.43 1.29067 158.634 1.2 158.884 1.2H168.234C171.226 1.2 173.56 1.88 175.238 3.24C176.938 4.6 177.788 6.51533 177.788 8.986C177.788 10.5727 177.414 11.9213 176.666 13.032C175.94 14.1427 174.932 15.004 173.64 15.616L178.23 23.912C178.298 24.048 178.332 24.1727 178.332 24.286C178.332 24.4673 178.264 24.6373 178.128 24.796C177.992 24.932 177.822 25 177.618 25H172.824C172.166 25 171.702 24.694 171.43 24.082L167.69 16.704H164.426V24.15C164.426 24.3993 164.335 24.6033 164.154 24.762C163.995 24.9207 163.791 25 163.542 25H158.884ZM168.2 11.706C169.174 11.706 169.911 11.468 170.41 10.992C170.931 10.4933 171.192 9.81333 171.192 8.952C171.192 8.09067 170.931 7.39933 170.41 6.878C169.911 6.35666 169.174 6.096 168.2 6.096H164.426V11.706H168.2Z" fill="#A61DD6"/>
</svg>
